<svg width="56" height="56" viewBox="0 0 56 56" fill="none" xmlns="http://www.w3.org/2000/svg">
<path d="M0 8C0 3.58172 3.58172 0 8 0H48C52.4183 0 56 3.58172 56 8V48C56 52.4183 52.4183 56 48 56H8C3.58172 56 0 52.4183 0 48V8Z" fill="#F6F0E5"/>
<path fill-rule="evenodd" clip-rule="evenodd" d="M23.0573 36.9154C22.1909 37.5935 21.7828 38.4596 21.6792 39.2615C21.5944 39.9188 20.9927 40.3828 20.3354 40.298C19.6782 40.213 19.2141 39.6114 19.299 38.9541C19.4786 37.5626 20.1873 36.1138 21.5781 35.0253C22.9661 33.9391 24.9455 33.278 27.5674 33.278C30.2141 33.278 32.2058 33.9418 33.5978 35.0378C34.9938 36.137 35.6933 37.5998 35.8642 39.0031C35.9444 39.661 35.4761 40.2593 34.8181 40.3394C34.1602 40.4196 33.562 39.9513 33.4818 39.2933C33.3825 38.4767 32.978 37.6044 32.1132 36.9234C31.2444 36.2394 29.8185 35.678 27.5674 35.678C25.3447 35.678 23.9265 36.2351 23.0573 36.9154Z" fill="#14405B"/>
<path fill-rule="evenodd" clip-rule="evenodd" d="M27.5724 22.978C25.7181 22.978 24.214 24.4818 24.214 26.3361C24.214 28.1905 25.7181 29.6943 27.5724 29.6943C29.4266 29.6943 30.9308 28.1905 30.9308 26.3361C30.9308 24.4818 29.4266 22.978 27.5724 22.978ZM21.814 26.3361C21.814 23.156 24.393 20.578 27.5724 20.578C30.7517 20.578 33.3308 23.156 33.3308 26.3361C33.3308 29.5162 30.7517 32.0943 27.5724 32.0943C24.393 32.0943 21.814 29.5162 21.814 26.3361Z" fill="#14405B"/>
<path d="M27.5996 44.3343C27.4818 44.3349 27.3649 44.3177 27.2524 44.2831C26.7388 44.1231 14.6827 40.3583 14.6827 29.8063C14.6827 26.8703 14.6427 24.7487 14.6155 23.1935C14.5451 19.2991 14.5291 18.4879 15.5483 17.4703C16.7563 16.2639 25.8652 13.1343 27.5996 13.1343C29.4316 13.1343 38.4236 16.2335 39.654 17.4735C40.67 18.4975 40.6538 19.3071 40.5834 23.2047C40.5562 24.7599 40.5178 26.8847 40.5178 29.8063C40.5178 40.3567 28.4604 44.1279 27.9484 44.2831C27.8353 44.3174 27.7177 44.3346 27.5996 44.3343ZM27.5996 15.5343C24.0125 16.351 20.5311 17.5766 17.2235 19.1871C16.9675 19.4431 16.9579 19.9743 17.0155 23.1487C17.0427 24.7151 17.0827 26.8511 17.0827 29.8063C17.0827 37.6655 25.7388 41.1999 27.5996 41.8671C29.4604 41.1999 38.1178 37.6655 38.1178 29.8063C38.1178 26.8575 38.158 24.7263 38.1852 23.1631C38.2412 19.9775 38.2314 19.4463 37.9514 19.1631C34.6501 17.5635 31.177 16.346 27.5996 15.5343Z" fill="#14405B"/>
</svg>
