<svg width="56" height="56" viewBox="0 0 56 56" fill="none" xmlns="http://www.w3.org/2000/svg">
<path d="M32.8761 31.9714H22.6943V21.8174C22.6943 19.0077 24.9755 16.7266 27.7852 16.7266C30.5949 16.7266 32.8761 19.0077 32.8761 21.8174V31.9714Z" fill="#C18F3E"/>
<path d="M34.4804 6.73958C34.2301 6.41502 33.8499 6.22029 33.4326 6.22029H32.3013C31.9025 6.22029 31.5224 6.39648 31.272 6.71176C31.0216 7.02704 30.9289 7.42578 31.0123 7.81525L31.5409 10.2355C31.5873 10.4488 31.7727 10.5971 31.9953 10.5971H32.2735C31.9767 11.4132 31.1978 12.0066 30.2798 12.0066C29.1114 12.0066 28.1563 11.0515 28.1563 9.88312V5.22808H30.4467C30.7063 5.22808 30.9103 5.02407 30.9103 4.76443C30.9103 4.50479 30.7063 4.30078 30.4467 4.30078H25.0313C24.7716 4.30078 24.5676 4.50479 24.5676 4.76443C24.5676 5.02407 24.7716 5.22808 25.0313 5.22808H27.1826V9.88312C27.1826 11.0515 26.2275 12.0066 25.0591 12.0066C24.1411 12.0066 23.3621 11.4132 23.0654 10.5971H23.2416C23.4549 10.5971 23.631 10.4581 23.6867 10.254L24.3358 7.87089C24.4471 7.47215 24.3636 7.05486 24.1132 6.72103C23.8629 6.39648 23.4827 6.20175 23.0654 6.20175H21.9341C21.5353 6.20175 21.1552 6.37793 20.9048 6.69322C20.6544 7.0085 20.5617 7.40723 20.6451 7.7967L21.1737 10.217C21.2201 10.4302 21.4055 10.5786 21.6281 10.5786H22.0917C22.4163 11.9139 23.6125 12.9154 25.0498 12.9154C26.1626 12.9154 27.127 12.3126 27.6648 11.4224C28.2026 12.3126 29.167 12.9154 30.2798 12.9154C31.7171 12.9154 32.9133 11.9139 33.2379 10.5786H33.5995C33.8128 10.5786 33.989 10.4395 34.0446 10.2355L34.6937 7.85234C34.8143 7.48142 34.7308 7.06413 34.4804 6.73958ZM21.5724 7.62051C21.5353 7.46287 21.6003 7.3516 21.6466 7.29596C21.7208 7.20323 21.8321 7.14759 21.9526 7.14759H23.0839C23.2045 7.14759 23.3158 7.20323 23.3899 7.30523C23.4641 7.40724 23.4919 7.52778 23.4549 7.64833L22.8985 9.68839H22.8892C22.815 9.54002 22.6574 9.43802 22.4812 9.43802C22.305 9.43802 22.1474 9.54002 22.0732 9.68839H22.0175L21.5724 7.62051ZM33.8128 7.63906L33.2657 9.64203C33.1822 9.51221 33.0431 9.41947 32.8855 9.41947C32.7093 9.41947 32.5517 9.52148 32.4775 9.66985H32.3755L31.9304 7.61124C31.8933 7.4536 31.9582 7.34232 32.0046 7.28669C32.0787 7.19396 32.19 7.13832 32.3106 7.13832H33.4419C33.5624 7.13832 33.6737 7.19396 33.7479 7.29596C33.8221 7.39796 33.8406 7.51851 33.8128 7.63906Z" fill="#C18F3E"/>
<path d="M49.79 51.6117H5.72477C5.34458 51.6117 5.0293 51.2964 5.0293 50.9162C5.0293 50.536 5.34458 50.2207 5.72477 50.2207H49.79C50.1702 50.2207 50.4855 50.536 50.4855 50.9162C50.4855 51.2964 50.1702 51.6117 49.79 51.6117Z" fill="#C18F3E"/>
<path d="M52.0896 49.1912C53.2766 49.1912 54.2502 48.2268 54.2502 47.0305C54.2502 45.8436 53.2859 44.8792 52.0896 44.8792H51.5796C50.9583 44.8514 50.4483 44.3506 50.4483 43.7201V9.25237C50.4483 7.22159 48.909 5.56172 47.0173 5.56172L37.7814 5.5339C37.596 5.5339 37.4198 5.60809 37.2899 5.73791C37.1601 5.86773 37.0859 6.04392 37.0859 6.22938V31.2201H33.9888C33.5993 30.9697 33.3489 30.5432 33.3396 30.0517V21.8173C33.3396 18.7572 30.8452 16.2628 27.7851 16.2628C24.725 16.2628 22.2306 18.7572 22.2306 21.8173V30.1815C22.1935 30.6081 21.971 30.979 21.6371 31.2108H18.4472V6.22938C18.4472 6.04392 18.373 5.86773 18.2432 5.73791C18.1134 5.60809 17.9187 5.50608 17.7518 5.5339L8.91459 5.56172C7.0229 5.56172 5.48358 7.22159 5.48358 9.25237V43.7015C5.4743 44.3414 4.95502 44.8607 4.31518 44.8607C4.28736 44.8607 4.26882 44.8699 4.241 44.8792H3.8608C2.67386 44.8792 1.7002 45.8436 1.7002 47.0305C1.7002 48.2175 2.66459 49.1912 3.8608 49.1912H52.0896ZM38.4769 6.92485L47.0173 6.95267C48.1393 6.95267 49.0574 7.98197 49.0574 9.25237V43.7108V43.7201V44.8792H46.0807L45.3018 43.5254V36.3759C46.0715 36.1719 46.6371 35.4764 46.6371 34.6418C46.6371 33.6496 45.8304 32.8429 44.8382 32.8429C43.846 32.8429 43.0392 33.6496 43.0392 34.6418C43.0392 35.1426 43.2525 35.5969 43.5863 35.9308C43.4936 35.9122 43.4194 35.8844 43.3823 35.8659C42.8537 35.6062 41.9172 34.4471 41.4813 29.69C42.2324 29.4675 42.7796 28.7906 42.7796 27.9745C42.7796 26.9823 41.9728 26.1756 40.9806 26.1756C39.9884 26.1756 39.1816 26.9823 39.1816 27.9745C39.1816 28.8091 39.7473 29.4953 40.5169 29.7086V35.1797L38.4769 31.6188V6.92485ZM41.4442 34.5862C41.843 35.6989 42.3437 36.3852 42.9743 36.6912C43.4008 36.9044 43.8738 36.9044 44.3745 36.7468V41.9119L41.435 36.7839V34.5862H41.4442ZM40.9806 28.8369C40.4984 28.8369 40.1089 28.4475 40.1089 27.9653C40.1089 27.4831 40.4984 27.0936 40.9806 27.0936C41.4628 27.0936 41.8523 27.4831 41.8523 27.9653C41.8523 28.4475 41.4535 28.8369 40.9806 28.8369ZM43.9665 34.6418C43.9665 34.1596 44.356 33.7702 44.8382 33.7702C45.3204 33.7702 45.7098 34.1596 45.7098 34.6418C45.7098 35.124 45.3204 35.5135 44.8382 35.5135C44.3652 35.5135 43.9665 35.124 43.9665 34.6418ZM37.4476 32.611L44.4765 44.8792H39.0889L33.6642 32.611H37.4476ZM23.1579 30.1815C23.1579 30.1352 23.1672 30.0981 23.1672 30.0517C23.1672 30.0331 23.1579 30.0146 23.1579 29.9868V21.8173C23.1579 19.2672 25.2351 17.1901 27.7851 17.1901C30.3352 17.1901 32.4123 19.2672 32.4123 21.8173V30.0332V30.0424V31.2108H23.1579V30.1815ZM22.9354 32.611H32.6442L38.0689 44.8792H17.7147L22.9354 32.611ZM18.2154 32.611H21.9339L16.7132 44.8792H11.1865L18.2154 32.611ZM10.8712 35.5135C10.389 35.5135 9.99953 35.124 9.99953 34.6418C9.99953 34.1596 10.389 33.7702 10.8712 33.7702C11.3534 33.7702 11.7428 34.1596 11.7428 34.6418C11.7428 35.124 11.3534 35.5135 10.8712 35.5135ZM12.8278 36.6912C13.4584 36.3852 13.9684 35.6989 14.3578 34.5862V36.5335L11.3348 41.8098V36.719C11.8727 36.9137 12.3734 36.9137 12.8278 36.6912ZM13.9498 27.9653C13.9498 27.4831 14.3393 27.0936 14.8215 27.0936C15.3037 27.0936 15.6931 27.4831 15.6931 27.9653C15.6931 28.4475 15.3037 28.8369 14.8215 28.8369C14.3486 28.8369 13.9498 28.4475 13.9498 27.9653ZM6.86525 43.7201C6.86525 43.7108 6.86525 43.7015 6.86525 43.6923C6.86525 43.683 6.86525 43.683 6.86525 43.683V9.25237C6.86525 7.98197 7.78328 6.95267 8.90531 6.95267L17.047 6.92485V31.8414L15.2851 34.92V29.6993C16.0548 29.4953 16.6204 28.7998 16.6204 27.9653C16.6204 26.9731 15.8137 26.1663 14.8215 26.1663C13.8293 26.1663 13.0225 26.9731 13.0225 27.9653C13.0225 28.7813 13.5696 29.4675 14.3207 29.6808C13.8849 34.4378 12.9483 35.5969 12.4198 35.8566C12.3641 35.8844 12.2714 35.9308 12.1138 35.94C12.4569 35.6155 12.6701 35.1518 12.6701 34.6418C12.6701 33.6496 11.8634 32.8429 10.8712 32.8429C9.87897 32.8429 9.07223 33.6496 9.07223 34.6418C9.07223 35.4764 9.63788 36.1626 10.4075 36.3759V43.4326L9.57297 44.8792H6.85598V43.7201H6.86525ZM3.08188 47.0398C3.08188 46.6225 3.42497 46.2794 3.85153 46.2794H52.0896C52.5162 46.2794 52.8593 46.6225 52.8593 47.0398C52.8593 47.4664 52.5162 47.8095 52.0896 47.8095H3.84226C3.42498 47.8002 3.08188 47.4571 3.08188 47.0398Z" fill="#14405B"/>
</svg>
