<svg width="36" height="36" viewBox="0 0 36 36" fill="none" xmlns="http://www.w3.org/2000/svg">
<rect width="36" height="36" rx="18" fill="#14405B"/>
<path fill-rule="evenodd" clip-rule="evenodd" d="M17.3751 25.2027C17.3751 25.3679 17.2172 25.4877 17.0657 25.4218C16.9826 25.3857 16.9012 25.3446 16.8218 25.2983C15.7702 24.6942 14.1268 23.945 12.2835 23.8125C11.0493 23.7308 10.0835 22.7133 10.0835 21.4967V12.88C10.0835 12.2242 10.3635 11.5967 10.8527 11.1592C11.3493 10.7142 12.0168 10.4984 12.6827 10.575C14.5843 10.7809 16.211 11.5375 17.241 12.1367C17.3205 12.1831 17.3751 12.2652 17.3751 12.3572V25.2027ZM15.0224 16.8719C14.9457 16.8719 14.8682 16.8577 14.7932 16.8286L12.9732 16.1119C12.6516 15.9853 12.4941 15.6219 12.6207 15.3011C12.7474 14.9794 13.1107 14.8228 13.4307 14.9478L15.2516 15.6653C15.5724 15.7919 15.7307 16.1553 15.6041 16.4752C15.5074 16.7219 15.2716 16.8719 15.0224 16.8719ZM15.0224 20.6219C14.9449 20.6219 14.8666 20.6077 14.7916 20.5769L12.9707 19.8519C12.6499 19.7252 12.4932 19.3611 12.6216 19.0411C12.7491 18.7194 13.1141 18.5611 13.4332 18.6919L15.2532 19.4169C15.5741 19.5436 15.7307 19.9077 15.6032 20.2277C15.5057 20.4727 15.2707 20.6219 15.0224 20.6219Z" fill="#FAFAF9"/>
<path fill-rule="evenodd" clip-rule="evenodd" d="M18.6251 25.2028C18.6251 25.368 18.783 25.4877 18.9345 25.4219C19.0167 25.3862 19.0974 25.3456 19.176 25.3C20.2302 24.6942 21.8735 23.945 23.7152 23.8125C24.9493 23.7317 25.9168 22.7142 25.9168 21.4967V12.88C25.9168 12.2242 25.636 11.5975 25.1468 11.1592C24.6502 10.715 23.986 10.5025 23.3185 10.575C21.416 10.7809 19.7885 11.5375 18.7593 12.1375C18.6797 12.1837 18.6251 12.2658 18.6251 12.3578V25.2028ZM20.2399 16.4859C20.3374 16.7309 20.5724 16.8801 20.8207 16.8801C20.8982 16.8801 20.9766 16.8659 21.0516 16.8359L22.8724 16.1109C23.1932 15.9834 23.3499 15.6193 23.2224 15.2993C23.0941 14.9784 22.7291 14.8218 22.4107 14.9493L20.5899 15.6743C20.2691 15.8018 20.1124 16.1659 20.2399 16.4859ZM20.2391 20.2259C20.3357 20.4726 20.5716 20.6217 20.8207 20.6217C20.8974 20.6217 20.9749 20.6084 21.0499 20.5784L22.8707 19.8617C23.1916 19.7351 23.3499 19.3717 23.2232 19.0509C23.0966 18.7292 22.7332 18.5734 22.4124 18.6984L20.5916 19.4151C20.2707 19.5417 20.1124 19.9051 20.2391 20.2259Z" fill="#FAFAF9"/>
</svg>
