<svg width="36" height="36" viewBox="0 0 36 36" fill="none" xmlns="http://www.w3.org/2000/svg">
<rect width="36" height="36" rx="18" fill="#14405B"/>
<path fill-rule="evenodd" clip-rule="evenodd" d="M12.2936 16.9562H13.9997C14.0847 16.9562 14.1532 16.8873 14.1525 16.8024C14.1507 16.5974 14.1533 16.3879 14.2205 16.1946C14.339 15.8662 14.5921 15.6131 14.9167 15.497C15.1067 15.4285 15.2982 15.4285 15.6459 15.4285H16.1228C16.4713 15.4285 16.6636 15.4285 16.8528 15.4977C17.1766 15.6131 17.4297 15.8662 17.5466 16.19C17.6145 16.3852 17.6176 16.5958 17.6162 16.8024C17.6156 16.8873 17.684 16.9562 17.769 16.9562H18.2305C18.3155 16.9562 18.384 16.8873 18.3833 16.8024C18.3815 16.5974 18.384 16.3879 18.4513 16.1946C18.5697 15.8662 18.8228 15.6131 19.1474 15.497C19.3374 15.4285 19.529 15.4285 19.8766 15.4285H20.3536C20.702 15.4285 20.8943 15.4285 21.0836 15.4977C21.4074 15.6131 21.6605 15.8662 21.7774 16.19C21.8453 16.3852 21.8484 16.5958 21.847 16.8024C21.8463 16.8873 21.9148 16.9562 21.9997 16.9562H23.7066C23.9197 16.9562 24.0913 16.7839 24.0913 16.5716V14.0993C24.0913 13.5062 24.0913 13.2085 23.9897 12.9254C23.8143 12.4393 23.4343 12.0608 22.9543 11.8893C22.6666 11.78 22.3674 11.78 21.7697 11.78H14.2313C13.6336 11.78 13.3344 11.78 13.0544 11.887C12.5667 12.0608 12.1867 12.4393 12.0113 12.9254C11.909 13.2077 11.909 13.5062 11.909 14.0993V16.5716C11.909 16.7839 12.0813 16.9562 12.2936 16.9562Z" fill="#FCFAF6"/>
<path fill-rule="evenodd" clip-rule="evenodd" d="M25.3931 18.8809C25.2139 18.3794 24.82 17.9809 24.2954 17.7824C24.0023 17.6824 23.6993 17.6824 23.15 17.6824H12.8485C12.2992 17.6824 11.9969 17.6824 11.6862 17.7894C11.18 17.9809 10.7869 18.3786 10.6077 18.8771C10.5 19.1724 10.5 19.4763 10.5 20.0286V23.644C10.5 23.9624 10.7585 24.2209 11.0769 24.2209C11.3954 24.2209 11.6538 23.9624 11.6538 23.644V23.4209C11.6538 23.3359 11.7227 23.2671 11.8077 23.2671H24.1923C24.2773 23.2671 24.3462 23.3359 24.3462 23.4209V23.644C24.3462 23.9624 24.6046 24.2209 24.9231 24.2209C25.2416 24.2209 25.5 23.9624 25.5 23.644V20.0286C25.5 19.4763 25.5 19.1724 25.3931 18.8809Z" fill="#FCFAF6"/>
</svg>
