<svg width="32" height="32" viewBox="0 0 32 32" fill="none" xmlns="http://www.w3.org/2000/svg">
<path fill-rule="evenodd" clip-rule="evenodd" d="M19.3387 11.7268L12.0217 14.7635C11.8463 14.8368 11.8078 15.0042 11.8012 15.0984C11.7945 15.1881 11.8065 15.3586 11.9699 15.4662L14.5497 17.1683C14.5505 17.1688 14.5508 17.1698 14.5504 17.1707C14.55 17.1715 14.5503 17.1726 14.5511 17.1731C14.7206 17.2822 14.8648 17.4418 14.9562 17.6297L16.4547 20.5183C16.5464 20.6918 16.6951 20.7082 16.7788 20.6977C16.8599 20.6903 17.0073 20.6469 17.0724 20.451L19.7758 12.2172C19.8422 12.0139 19.7558 11.8778 19.6987 11.8135C19.6416 11.7478 19.5154 11.6536 19.3387 11.7268Z" fill="#79716B"/>
<path fill-rule="evenodd" clip-rule="evenodd" d="M21.0375 13.6253L18.4657 20.5853C18.1625 21.3962 17.4387 21.9457 16.576 22.0202C16.5091 22.0265 16.4408 22.0303 16.3739 22.0303C15.5907 22.0303 14.8733 21.6248 14.4691 20.9415L13.1465 18.6779L10.8779 17.3478C10.1326 16.9095 9.71579 16.1023 9.78905 15.2396C9.86358 14.3768 10.4131 13.6505 11.2253 13.3436L18.1865 10.7768C19.0088 10.4737 19.9057 10.6682 20.5259 11.2859C21.1448 11.9048 21.3419 12.8004 21.0375 13.6253ZM16 4C9.38358 4 4 9.38357 4 16C4 22.6164 9.38358 28 16 28C22.6164 28 28 22.6164 28 16C28 9.38357 22.6164 4 16 4Z" fill="#79716B"/>
</svg>
